
<svg width="900" height="160" viewBox="0 0 900 160" fill="none" xmlns="http://www.w3.org/2000/svg">
  <rect width="900" height="160" fill="#000000"/>
  <path d="M177 40C189.134 40 199.741 47.3926 203.861 58.0613C203.95 58.2959 204.037 58.5322 204.121 58.7702C204.035 58.9766 203.947 59.1814 203.856 59.3845C199.717 69.9962 189.057 77 177 77C164.866 77 154.259 69.6074 150.139 58.9387C150.05 58.7041 149.963 58.4678 149.879 58.2298C149.965 58.0234 150.053 57.8186 150.144 57.6155C154.283 47.0038 164.943 40 177 40Z" fill="#000000"/>
  <g transform="translate(31, 24) scale(1.2)">
    <path d="M120 5C132.134 5 142.741 12.3926 146.861 23.0613C146.95 23.2959 147.037 23.5322 147.121 23.7702C147.035 23.9766 146.947 24.1814 146.856 24.3845C142.717 34.9962 132.057 42 120 42C107.866 42 97.2586 34.6074 93.1394 23.9387C93.0501 23.7041 92.9635 23.4678 92.8794 23.2298C92.9652 23.0234 93.0527 22.8186 93.1436 22.6155C97.2828 12.0038 107.943 5 120 5Z" fill="#000000"/>
    <path d="M120 42C132.15 42 142 32.15 142 20H144C144 33.2548 133.255 44 120 44C106.745 44 96 33.2548 96 20H98C98 32.15 107.85 42 120 42Z" fill="#FFC700"/>
    <path d="M134.849 25C133.945 31.1395 129.886 36 125 36C120.114 36 116.055 31.1395 115.151 25H113.112C114.044 32.2474 119.028 38 125 38C130.972 38 135.956 32.2474 136.888 25H134.849Z" fill="#FFC700"/>
  </g>
  <path d="M120 30m-25 0a25 25 0 1 0 50 0a25 25 0 1 0 -50 0" fill="transparent"/>
  <g transform="translate(235, 40)">
    <path d="M32.96 80H4.48V0.64H35.36C43.68 0.64 50.72 2.48 56.48 6.16C62.24 9.84 66.56 15.04 69.44 21.76C72.32 28.48 73.76 36.32 73.76 45.28C73.76 54.24 72.24 62.16 69.2 68.96C66.16 75.76 61.68 81.04 55.76 84.8C49.84 88.48 41.92 80 32.96 80ZM21.6 65.76H31.84C36.96 65.76 41.12 64.72 44.32 62.64C47.52 60.56 49.84 57.44 51.28 53.28C52.8 49.04 53.56 44 53.56 38.16V36.32C53.56 30.48 52.8 25.52 51.28 21.44C49.76 17.36 47.44 14.24 44.32 12.08C41.2 9.92 37.12 8.84 32.08 8.84H21.6V65.76Z" fill="white"/>
    <path d="M140.766 40.32C140.766 49.76 139.054 57.92 135.63 64.8C132.206 71.68 127.526 77.04 121.59 80.88C115.654 84.72 108.934 86.64 101.43 86.64C93.8502 86.64 87.0502 84.72 81.0302 80.88C74.9302 77.04 70.1702 71.68 66.7462 64.8C63.3222 57.92 61.6102 49.76 61.6102 40.32C61.6102 30.88 63.3222 22.72 66.7462 15.84C70.1702 8.96 75.0102 3.6 81.1102 -0.24C87.2102 -4.08 94.0102 -6 101.51 -6C109.094 -6 115.894 -4.08 121.99 -0.24C128.086 3.6 132.846 8.96 136.27 15.84C139.694 22.72 141.406 30.88 141.406 40.32H140.766ZM82.4502 40.32C82.4502 46.56 83.2902 51.92 84.9702 56.4C86.6502 60.88 89.0502 64.32 92.1702 66.72C95.2902 69.12 98.9462 70.32 103.15 70.32C107.43 70.32 111.11 69.12 114.19 66.72C117.27 64.32 119.63 60.88 121.27 56.4C122.91 51.92 123.73 46.56 123.73 40.32C123.73 34.08 122.91 28.72 121.27 24.24C119.63 19.76 117.27 16.32 114.19 13.92C111.11 11.52 107.43 10.32 103.15 10.32C98.9462 10.32 95.2902 11.52 92.1702 13.92C89.0502 16.32 86.6502 19.76 84.9702 24.24C83.2902 28.72 82.4502 34.08 82.4502 40.32Z" fill="white"/>
    <path d="M199.63 86.64C192.046 86.64 185.35 84.8 179.55 81.12C173.75 77.44 169.19 72.24 165.87 65.52C162.55 58.8 160.89 50.96 160.89 42C160.89 33.04 162.55 25.2 165.87 18.48C169.19 11.76 173.75 6.56 179.55 2.88C185.35 -0.8 192.046 -2.64 199.63 -2.64C209.71 -2.64 218.03 0.32 224.59 6.24C231.15 12.16 235.11 20.32 236.47 30.72H217.55C216.75 25.92 214.91 22.24 212.03 19.68C209.15 17.12 205.35 15.84 200.63 15.84C196.55 15.84 193.03 16.96 190.07 19.2C187.11 21.44 184.83 24.64 183.23 28.8C181.63 32.96 180.83 37.92 180.83 43.68C180.83 49.52 181.63 54.56 183.23 58.8C184.83 63.04 187.11 66.32 190.07 68.64C193.03 70.96 196.55 72.12 200.63 72.12C203.59 72.12 206.27 71.52 208.67 70.32C211.07 69.12 213.07 67.36 214.67 65.04C216.27 62.72 217.27 59.92 217.67 56.64H236.59C235.39 66.4 231.55 74.16 225.07 79.92C218.59 84.4 210.06 86.64 199.63 86.64Z" fill="white"/>
    <path d="M320.903 0.64V80H301.983V49.28H267.423V80H248.503V0.64H267.423V33.04H301.983V0.64H320.903Z" fill="white"/>
    <path d="M334.003 80V0.64H385.923V16H352.923V32.24H382.363V47.68H352.923V64.64H387.603V80H334.003Z" fill="white"/>
  </g>
  <g transform="translate(235, 112)">
    <path d="M48.88 53.4H21.52L16.4 68H0.32L26.8 0.64H43.84L70.48 68H54.08L48.88 53.4ZM44.48 41.24L35.28 15.56L26.08 41.24H44.48Z" fill="white"/>
    <path d="M104.685 68.48C99.2446 68.48 94.4046 67.4 90.1646 65.24C85.9246 63 82.6446 59.76 80.3246 55.52C77.9246 51.28 76.7246 46.2 76.7246 40.28C76.7246 34.44 77.9246 29.36 80.3246 25.04C82.7246 20.72 86.0446 17.44 90.2846 15.2C94.5246 12.96 99.3646 11.84 104.845 11.84C110.325 11.84 115.165 12.96 119.365 15.2C123.645 17.44 126.965 20.72 129.325 25.04C131.685 29.36 132.885 34.44 132.925 40.28C132.925 46.16 131.725 51.24 129.325 55.48C126.925 59.72 123.565 63 119.205 65.24C114.925 67.4 110.045 68.48 104.685 68.48ZM104.685 56C108.445 56 111.445 54.6 113.685 51.8C115.925 49 117.045 45.16 117.045 40.28C117.045 35.4 115.925 31.56 113.685 28.76C111.445 25.96 108.485 24.56 104.805 24.56C101.085 24.56 98.1246 25.96 95.9246 28.76C93.7246 31.52 92.6246 35.36 92.6246 40.28C92.6246 45.16 93.7246 49 95.9246 51.8C98.1246 54.6 101.045 56 104.685 56Z" fill="white"/>
    <path d="M169.391 24.84V49.08C169.391 51.32 169.911 52.92 170.951 53.88C172.071 54.76 173.791 55.2 176.111 55.2H183.631V68H172.951C161.991 68 156.511 62.64 156.511 51.92V24.84H148.911V12.24H156.511V-0.76H169.391V12.24H183.631V24.84H169.391Z" fill="white"/>
    <path d="M186.804 68V12.24H199.684V68H186.804ZM193.244 5.48C190.924 5.48 188.964 4.76 187.364 3.32C185.844 1.88 185.084 0.08 185.084 -2.08C185.084 -4.24 185.844 -6.04 187.364 -7.48C188.964 -8.92 190.924 -9.64 193.244 -9.64C195.564 -9.64 197.484 -8.96 199.004 -7.6C200.604 -6.24 201.404 -4.48 201.404 -2.32C201.404 -0.08 200.604 1.68 199.004 3C197.484 4.32 195.564 5.48 193.244 5.48Z" fill="white"/>
    <path d="M228.664 20.6C230.664 17.88 233.264 15.72 236.464 14.12C239.744 12.44 243.504 11.6 247.744 11.6C252.704 11.6 257.144 12.72 261.064 14.96C264.984 17.2 268.064 20.44 270.304 24.68C272.624 28.92 273.784 33.96 273.784 39.8C273.784 45.64 272.624 50.72 270.304 55.04C268.064 59.28 264.984 62.56 261.064 64.88C257.144 67.12 252.704 68.24 247.744 68.24C243.424 68.24 239.664 67.44 236.464 65.84C233.264 64.16 230.664 62 228.664 59.36V100H215.784V12.24H228.664V20.6ZM260.104 39.8C260.104 36.28 259.344 33.24 257.824 30.68C256.384 28.04 254.424 26.04 251.944 24.68C249.544 23.24 246.944 22.52 244.144 22.52C241.424 22.52 238.824 23.24 236.344 24.68C233.944 26.04 232.024 28.04 230.584 30.68C229.144 33.32 228.424 36.4 228.424 39.96C228.424 43.52 229.144 46.6 230.584 49.24C232.024 51.88 233.944 53.92 236.344 55.36C238.824 56.72 241.424 57.4 244.144 57.4C246.944 57.4 249.544 56.68 251.944 55.24C254.424 53.8 256.384 51.76 257.824 49.12C259.344 46.48 260.104 43.4 260.104 39.8Z" fill="white"/>
    <path d="M353.408 40.28C353.408 40.92 353.328 42.04 353.168 43.64H307.408C307.728 47.8 309.168 51.08 311.728 53.48C314.288 55.88 317.488 57.08 321.328 57.08C326.928 57.08 330.888 54.96 333.208 50.72H351.928C350.488 55.92 347.928 60.4 344.248 64.16C340.648 67.84 336.168 70.64 330.808 72.56C325.448 74.4 319.648 75.32 313.408 75.32C305.888 75.32 299.128 73.8 293.128 70.76C287.128 67.72 282.488 63.4 279.208 57.8C275.928 52.2 274.288 45.56 274.288 37.88C274.288 30.2 275.888 23.56 279.088 17.96C282.368 12.36 286.968 8.04 292.888 5C298.808 1.96 305.568 0.44 313.168 0.44C320.528 0.44 327.088 1.92 332.848 4.88C338.608 7.84 343.128 12 346.408 17.36C349.768 22.72 353.408 30.92 353.408 40.28ZM319.688 27.12C316.168 27.12 313.128 28.16 310.568 30.24C308.008 32.32 306.368 35.28 305.608 39.12H333.048C332.688 35.52 331.248 32.64 328.728 30.48C326.208 28.24 323.208 27.12 319.688 27.12Z" fill="white"/>
  </g>
  <text x="890" y="155" font-family="Arial, sans-serif" font-size="12" font-weight="bold" fill="white">TM</text>
  <path d="M175 40C175 45 170 50 165 50C160 50 155 45 155 40C155 35 160 30 165 30C170 30 175 35 175 40Z" fill="#FFC700"/>
  <path d="M100 40L115 30L130 25L145 30L160 40L175 50L160 40L145 30L130 25" stroke="#FFC700" stroke-width="2"/>
  <path d="M100 40L85 50L70 55L55 50L40 40L25 30L40 40L55 50L70 55" stroke="#FFC700" stroke-width="2"/>
  <path d="M100 120V40M100 120L100 170" stroke="#FFC700" stroke-width="4"/>
  <path d="M70 55C65 70 75 90 90 95C105 100 120 90 120 75" stroke="#FFC700" stroke-width="2"/>
  <path d="M130 25C135 40 125 60 110 65C95 70 80 60 80 45" stroke="#FFC700" stroke-width="2"/>
  <path d="M70 55C75 25 125 25 130 55" stroke="#FFC700" stroke-width="2" fill="none"/>
  <path d="M70 80C75 100 125 100 130 80" stroke="#FFC700" stroke-width="2" fill="none"/>
  <ellipse cx="100" cy="110" rx="40" ry="10" stroke="#FFC700" stroke-width="2" fill="none"/>
</svg>
