
<svg width="240" height="60" viewBox="0 0 240 60" fill="none" xmlns="http://www.w3.org/2000/svg">
  <path d="M120 30m-25 0a25 25 0 1 0 50 0a25 25 0 1 0 -50 0" fill="#182235"/>
  <path d="M120 5C132.134 5 142.741 12.3926 146.861 23.0613C146.95 23.2959 147.037 23.5322 147.121 23.7702C147.035 23.9766 146.947 24.1814 146.856 24.3845C142.717 34.9962 132.057 42 120 42C107.866 42 97.2586 34.6074 93.1394 23.9387C93.0501 23.7041 92.9635 23.4678 92.8794 23.2298C92.9652 23.0234 93.0527 22.8186 93.1436 22.6155C97.2828 12.0038 107.943 5 120 5Z" fill="#182235"/>
  <path fill-rule="evenodd" clip-rule="evenodd" d="M115 18C115 20.7614 117.239 23 120 23C122.761 23 125 20.7614 125 18C125 15.2386 122.761 13 120 13C117.239 13 115 15.2386 115 18ZM120 21C118.343 21 117 19.6569 117 18C117 16.3431 118.343 15 120 15C121.657 15 123 16.3431 123 18C123 19.6569 121.657 21 120 21Z" fill="#FFC700"/>
  <path fill-rule="evenodd" clip-rule="evenodd" d="M120 42C132.15 42 142 32.15 142 20H144C144 33.2548 133.255 44 120 44C106.745 44 96 33.2548 96 20H98C98 32.15 107.85 42 120 42Z" fill="#FFC700"/>
  <path fill-rule="evenodd" clip-rule="evenodd" d="M134.849 25C133.945 31.1395 129.886 36 125 36C120.114 36 116.055 31.1395 115.151 25H113.112C114.044 32.2474 119.028 38 125 38C130.972 38 135.956 32.2474 136.888 25H134.849Z" fill="#FFC700"/>
  <text x="50" y="35" font-family="Arial, sans-serif" font-weight="bold" font-size="14" fill="#FFC700">ADVISOR PORTAL</text>
</svg>
